<svg width="current" height="current" viewBox="0 0 20 20" fill="none" xmlns="http://www.w3.org/2000/svg">
    <path d="M14.166 11.667h1.667v2.5h2.5v1.666h-2.5v2.5h-1.667v-2.5h-2.5v-1.666h2.5v-2.5zm2.5-1.667c0-2.8-1.725-5.192-4.167-6.175v.342c0 .916-.75 1.666-1.666 1.666H9.166V7.5a.836.836 0 0 1-.833.833H6.666V10h5a.85.85 0 0 1 .833.675A4.99 4.99 0 0 0 10 15c0 1.25.45 2.375 1.2 3.25l-1.2.083c-4.583 0-8.333-3.75-8.333-8.333s3.75-8.333 8.333-8.333c4.584 0 8.334 3.75 8.334 8.333l-.084 1.2c-.466-.4-1-.708-1.583-.917V10zm-7.5 6.608V15c-.917 0-1.667-.75-1.667-1.667V12.5L3.508 8.508A6.706 6.706 0 0 0 3.333 10c0 3.4 2.55 6.2 5.833 6.608z" fill="#0086E7"/>
</svg>
