<svg width="current" height="current" viewBox="0 0 72 20" fill="none" xmlns="http://www.w3.org/2000/svg">
    <path d="M6.99 16.238c-.312 0-.558-.06-.738-.18a1.175 1.175 0 0 1-.396-.414 8.157 8.157 0 0 1-.144-.324L2.328 5.51c-.156-.504-.18-.876-.072-1.116.108-.252.42-.462.936-.63.336-.108.606-.156.81-.144.216.012.39.096.522.252.144.156.27.402.378.738l2.25 6.678L9.042 4.7c.036-.12.09-.258.162-.414.084-.156.216-.294.396-.414.18-.12.432-.18.756-.18.372 0 .648.066.828.198.192.132.324.276.396.432.072.156.126.276.162.36l1.908 6.642 2.232-6.696c.108-.336.228-.582.36-.738a.806.806 0 0 1 .54-.288c.228-.024.51.024.846.144.36.132.612.27.756.414a.733.733 0 0 1 .216.54c.012.204-.03.474-.126.81l-3.384 9.81a2.511 2.511 0 0 1-.162.342 1.066 1.066 0 0 1-.378.396c-.168.12-.42.18-.756.18-.324 0-.582-.072-.774-.216a1.43 1.43 0 0 1-.414-.45 18.59 18.59 0 0 1-.144-.342l-2.07-6.714-2.07 6.714c-.012.06-.06.174-.144.342a1.357 1.357 0 0 1-.414.468c-.18.132-.438.198-.774.198zM20.613 16.274c-.444 0-.762-.06-.954-.18a.854.854 0 0 1-.342-.504 4.045 4.045 0 0 1-.054-.666V8.642c0-.24.018-.462.054-.666a.767.767 0 0 1 .36-.486c.192-.132.51-.198.954-.198.432 0 .738.066.918.198a.76.76 0 0 1 .342.504c.048.204.072.432.072.684v6.264c0 .228-.024.45-.072.666a.702.702 0 0 1-.342.486c-.18.12-.492.18-.936.18zm0-10.296c-.456 0-.78-.066-.972-.198a.837.837 0 0 1-.36-.522 4.159 4.159 0 0 1-.054-.684c0-.252.024-.48.072-.684a.772.772 0 0 1 .36-.504c.192-.132.516-.198.972-.198.444 0 .762.066.954.198a.768.768 0 0 1 .342.522c.048.216.072.444.072.684 0 .24-.024.468-.072.684a.768.768 0 0 1-.342.522c-.192.12-.516.18-.972.18zM26.772 16.418c-.324 0-.678-.036-1.062-.108a7.109 7.109 0 0 1-1.098-.306 3.932 3.932 0 0 1-.9-.486c-.24-.192-.378-.408-.414-.648a1 1 0 0 1 0-.378c.036-.144.096-.288.18-.432.084-.156.186-.318.306-.486a.634.634 0 0 1 .324-.252.707.707 0 0 1 .414.018c.192.036.384.102.576.198.204.084.402.18.594.288.204.096.414.186.63.27.216.072.438.108.666.108.336 0 .594-.048.774-.144.192-.108.288-.252.288-.432a.439.439 0 0 0-.126-.324.848.848 0 0 0-.324-.216 2.116 2.116 0 0 0-.468-.18c-.18-.048-.378-.096-.594-.144a43.4 43.4 0 0 0-.63-.18 5.328 5.328 0 0 1-.864-.324 3.196 3.196 0 0 1-.756-.504 2.365 2.365 0 0 1-.54-.774c-.132-.312-.198-.69-.198-1.134 0-.588.138-1.08.414-1.476.276-.396.678-.696 1.206-.9.528-.216 1.17-.324 1.926-.324.216 0 .432.012.648.036.216.024.426.066.63.126.216.06.426.132.63.216.204.084.408.186.612.306.36.168.546.396.558.684.012.288-.09.582-.306.882-.132.204-.27.354-.414.45a.598.598 0 0 1-.45.072 3.44 3.44 0 0 1-.63-.234 7.7 7.7 0 0 0-.702-.306 1.926 1.926 0 0 0-.72-.144c-.204 0-.378.03-.522.09a.645.645 0 0 0-.324.216.454.454 0 0 0-.108.306c0 .156.042.282.126.378.096.084.222.156.378.216s.336.114.54.162c.204.048.426.096.666.144.324.06.654.144.99.252.348.096.66.24.936.432.288.192.516.45.684.774.18.324.27.75.27 1.278 0 .948-.33 1.674-.99 2.178-.66.504-1.602.756-2.826.756zM33.055 16.274c-.432 0-.744-.06-.936-.18a.833.833 0 0 1-.36-.504 4.159 4.159 0 0 1-.054-.684V4.538c0-.24.024-.462.072-.666a.767.767 0 0 1 .36-.486c.192-.132.504-.198.936-.198.444 0 .756.066.936.198a.76.76 0 0 1 .342.504c.048.204.072.426.072.666v3.672c.216-.228.492-.444.828-.648.348-.204.756-.306 1.224-.306.744 0 1.41.192 1.998.576.6.372 1.074.888 1.422 1.548.36.66.54 1.416.54 2.268v3.258c0 .24-.024.462-.072.666a.854.854 0 0 1-.342.504c-.18.12-.498.18-.954.18-.42 0-.732-.06-.936-.18a.833.833 0 0 1-.36-.504 4.159 4.159 0 0 1-.054-.684v-3.258c0-.348-.06-.642-.18-.882a1.36 1.36 0 0 0-.54-.594c-.228-.144-.51-.216-.846-.216-.444 0-.834.138-1.17.414-.324.264-.51.588-.558.972v3.582c0 .24-.024.462-.072.666a.833.833 0 0 1-.36.504c-.18.12-.492.18-.936.18zM46.246 16.274c-.612 0-1.14-.066-1.584-.198a2.651 2.651 0 0 1-1.08-.612 2.573 2.573 0 0 1-.648-1.044c-.132-.432-.198-.942-.198-1.53V5.582c0-.24.018-.456.054-.648a.764.764 0 0 1 .36-.468c.192-.132.504-.198.936-.198.432 0 .744.066.936.198a.76.76 0 0 1 .342.504c.048.204.072.426.072.666v7.146c0 .192.012.354.036.486.036.12.084.21.144.27a.5.5 0 0 0 .252.126c.108.024.24.036.396.036.264 0 .498.024.702.072.204.048.36.156.468.324.12.168.18.45.18.846 0 .432-.066.744-.198.936a.768.768 0 0 1-.522.342c-.204.036-.42.054-.648.054zm-4.068-8.856h1.98l2.484-.072c.228 0 .444.024.648.072a.76.76 0 0 1 .504.342c.132.192.198.51.198.954 0 .408-.066.708-.198.9a.84.84 0 0 1-.486.378 2.905 2.905 0 0 1-.666.072l-2.358-.054h-2.178c-.348-.012-.594-.114-.738-.306-.132-.204-.198-.54-.198-1.008 0-.432.084-.75.252-.954.168-.216.42-.324.756-.324zM50.37 16.274c-.443 0-.761-.06-.953-.18a.86.86 0 0 1-.342-.522 4.045 4.045 0 0 1-.054-.666V8.624c0-.24.024-.462.072-.666a.782.782 0 0 1 .342-.486c.192-.132.51-.198.954-.198.42 0 .72.06.9.18.192.108.312.24.36.396.048.144.072.27.072.378l-.216.108a1.8 1.8 0 0 1 .18-.252c.108-.132.252-.264.432-.396.18-.144.396-.264.648-.36.264-.096.564-.144.9-.144.132 0 .276.012.432.036.168.012.336.048.504.108.18.048.342.12.486.216a.986.986 0 0 1 .342.324.804.804 0 0 1 .144.486c0 .492-.114.912-.342 1.26-.228.336-.516.504-.864.504-.204 0-.348-.018-.432-.054a1.805 1.805 0 0 1-.216-.108.63.63 0 0 0-.18-.09c-.072-.036-.204-.054-.396-.054-.18 0-.354.024-.522.072a1.47 1.47 0 0 0-.45.234c-.132.096-.24.222-.324.378a1.072 1.072 0 0 0-.108.486v3.96c0 .228-.024.45-.072.666a.702.702 0 0 1-.342.486c-.192.12-.51.18-.954.18zM58.072 16.274c-.444 0-.762-.06-.954-.18a.854.854 0 0 1-.342-.504 4.045 4.045 0 0 1-.054-.666V8.642c0-.24.018-.462.054-.666a.767.767 0 0 1 .36-.486c.192-.132.51-.198.954-.198.432 0 .738.066.918.198a.76.76 0 0 1 .342.504c.048.204.072.432.072.684v6.264c0 .228-.024.45-.072.666a.702.702 0 0 1-.342.486c-.18.12-.492.18-.936.18zm0-10.296c-.456 0-.78-.066-.972-.198a.837.837 0 0 1-.36-.522 4.159 4.159 0 0 1-.054-.684c0-.252.024-.48.072-.684a.772.772 0 0 1 .36-.504c.192-.132.516-.198.972-.198.444 0 .762.066.954.198a.768.768 0 0 1 .342.522c.048.216.072.444.072.684 0 .24-.024.468-.072.684a.768.768 0 0 1-.342.522c-.192.12-.516.18-.972.18zM65.707 16.112c-.588 0-1.11-.114-1.566-.342a3.427 3.427 0 0 1-1.116-.954 4.745 4.745 0 0 1-.666-1.404 6.026 6.026 0 0 1-.198-1.71c0-.588.078-1.146.234-1.674.156-.54.378-1.014.666-1.422.3-.42.666-.744 1.098-.972.444-.24.96-.36 1.548-.36.528 0 1.038.12 1.53.36.504.24.948.57 1.332.99.384.408.684.882.9 1.422.228.54.342 1.11.342 1.71 0 .6-.114 1.17-.342 1.71a4.386 4.386 0 0 1-2.214 2.322 3.81 3.81 0 0 1-1.548.324zM62.233 20c-.432 0-.744-.066-.936-.198a.782.782 0 0 1-.342-.486 3.424 3.424 0 0 1-.054-.63V8.624c0-.24.018-.456.054-.648a.777.777 0 0 1 .324-.504c.192-.132.504-.198.936-.198.372 0 .666.054.882.162a.95.95 0 0 1 .486.504v10.728c.012.228-.006.444-.054.648a.767.767 0 0 1-.36.486c-.18.132-.492.198-.936.198zm3.096-6.426c.336 0 .636-.078.9-.234.264-.168.474-.39.63-.666.168-.276.252-.582.252-.918a1.77 1.77 0 0 0-.234-.918 1.72 1.72 0 0 0-.63-.648 1.735 1.735 0 0 0-.9-.234 1.7 1.7 0 0 0-.9.252 1.72 1.72 0 0 0-.63.648 1.849 1.849 0 0 0-.216.9 1.864 1.864 0 0 0 .864 1.584c.264.156.552.234.864.234z" fill="#0086E7"/>
</svg>
