<svg width="current" height="current" viewBox="0 0 19 19" fill="none" xmlns="http://www.w3.org/2000/svg">
    <path d="m9.203 3.453.39.422.422-.421a5.115 5.115 0 0 1 4.412-1.404 5.024 5.024 0 0 1 4.198 4.957v.204a5.26 5.26 0 0 1-1.673 3.85l-6.353 5.93a1.427 1.427 0 0 1-1.948 0l-6.353-5.93a5.264 5.264 0 0 1-1.673-3.85v-.204A5.025 5.025 0 0 1 4.823 2.05a5.053 5.053 0 0 1 4.38 1.403s-.032 0 0 0zm.39 2.81L8.011 4.616a3.411 3.411 0 0 0-2.91-.902 3.338 3.338 0 0 0-2.788 3.292v.204c0 .992.411 1.941 1.136 2.616l6.176 5.766 6.177-5.766a3.578 3.578 0 0 0 1.136-2.616v-.204a3.34 3.34 0 0 0-2.788-3.292 3.411 3.411 0 0 0-2.911.902L9.593 6.262z" fill="#CDCDCD"/>
</svg>
